<?xml version="1.0" encoding="UTF-8" standalone="no"?>
<!-- Created with Inkscape (http://www.inkscape.org/) -->

<svg
   xmlns:dc="http://purl.org/dc/elements/1.1/"
   xmlns:cc="http://creativecommons.org/ns#"
   xmlns:rdf="http://www.w3.org/1999/02/22-rdf-syntax-ns#"
   xmlns:svg="http://www.w3.org/2000/svg"
   xmlns="http://www.w3.org/2000/svg"
   xmlns:sodipodi="http://sodipodi.sourceforge.net/DTD/sodipodi-0.dtd"
   xmlns:inkscape="http://www.inkscape.org/namespaces/inkscape"
   width="480"
   height="640"
   viewBox="0 0 480.00001 639.99999"
   id="svg2"
   version="1.1"
   inkscape:version="0.91 r13725"
   sodipodi:docname="phone.svg"
   inkscape:export-filename="C:\Users\gcgol\Desktop\Projects\Web\GitHub Website\resources\phone.png"
   inkscape:export-xdpi="43.467442"
   inkscape:export-ydpi="43.467442">
  <defs
     id="defs4" />
  <sodipodi:namedview
     id="base"
     pagecolor="#ffffff"
     bordercolor="#666666"
     borderopacity="1.0"
     inkscape:pageopacity="0.0"
     inkscape:pageshadow="2"
     inkscape:zoom="0.25"
     inkscape:cx="19.48956"
     inkscape:cy="416.77063"
     inkscape:document-units="px"
     inkscape:current-layer="layer1"
     showgrid="false"
     units="px"
     inkscape:window-width="930"
     inkscape:window-height="755"
     inkscape:window-x="503"
     inkscape:window-y="29"
     inkscape:window-maximized="0" />
  <metadata
     id="metadata7">
    <rdf:RDF>
      <cc:Work
         rdf:about="">
        <dc:format>image/svg+xml</dc:format>
        <dc:type
           rdf:resource="http://purl.org/dc/dcmitype/StillImage" />
        <dc:title />
      </cc:Work>
    </rdf:RDF>
  </metadata>
  <g
     inkscape:label="Layer 1"
     inkscape:groupmode="layer"
     id="layer1"
     transform="translate(0,-412.36227)">
    <path
       style="fill:#4c4c4c;fill-rule:evenodd;stroke:#4c4c4c;stroke-width:3.44652486px;stroke-linecap:butt;stroke-linejoin:miter;stroke-opacity:1"
       d="m 328.58875,478.49187 -80.97396,10e-4 -80.97394,-10e-4 c -40.24082,0.60078 -40.25494,34.035 -40.25494,34.035 l 0.15822,355.40244 c 0,0 0.0177,33.43322 40.25792,34.03338 l 80.97394,-10e-4 80.97395,10e-4 c 40.24082,-0.60015 40.25492,-34.0344 40.25492,-34.0344 l -0.15822,-355.40244 c 0,0 -0.0177,-33.43322 -40.25789,-34.03338 z"
       id="path3354-5"
       inkscape:connector-curvature="0"
       sodipodi:nodetypes="ccccccccccc"
       inkscape:export-xdpi="89.5"
       inkscape:export-ydpi="89.5" />
    <path
       style="fill:none;fill-rule:evenodd;stroke:#000000;stroke-width:1px;stroke-linecap:butt;stroke-linejoin:miter;stroke-opacity:1"
       d="m -243.27339,233.63551 -22.96984,5.3e-4 -22.96983,-3.8e-4 c -11.41508,0.17811 -11.41908,10.10049 -11.41908,10.10049 l 0.0449,105.47391 c 0,0 0.005,9.92208 11.41993,10.10019 l 22.96983,-5.3e-4 22.96983,3.8e-4 c 11.41509,-0.17811 11.41909,-10.10049 11.41909,-10.10049 l -0.0449,-105.47391 c 0,0 -0.005,-9.92208 -11.41993,-10.10019 z"
       id="path3354-5-4"
       inkscape:connector-curvature="0"
       sodipodi:nodetypes="ccccccccccc" />
    <path
       style="fill:#1a1a1a;fill-rule:evenodd;stroke:#666666;stroke-width:3.44652486px;stroke-linecap:butt;stroke-linejoin:miter;stroke-opacity:1"
       d="m 326.13446,474.57069 -80.97397,10e-4 -80.97395,-10e-4 c -40.24082,0.60015 -40.25492,34.0344 -40.25492,34.0344 l 0.15822,355.40244 c 0,0 0.0177,33.43322 40.25792,34.03338 l 80.97393,-0.001 80.97394,0.001 c 40.24082,-0.60015 40.25494,-34.03437 40.25494,-34.03437 l -0.15822,-355.40247 c 0,0 -0.0177,-33.43322 -40.25789,-34.03335 z"
       id="path3354-5-7"
       inkscape:connector-curvature="0"
       sodipodi:nodetypes="ccccccccccc"
       inkscape:export-xdpi="89.5"
       inkscape:export-ydpi="89.5" />
    <rect
       style="fill:#0085ff;fill-opacity:1;stroke:#0085ff;stroke-width:3.40945292;stroke-miterlimit:4;stroke-dasharray:none;stroke-opacity:1"
       id="rect4181"
       width="235.23444"
       height="311.71057"
       x="127.5637"
       y="523.63544"
       inkscape:export-xdpi="89.5"
       inkscape:export-ydpi="89.5" />
    <path
       style="fill:#4c4c4c;fill-rule:evenodd;stroke:#4c4c4c;stroke-width:1px;stroke-linecap:butt;stroke-linejoin:miter;stroke-opacity:1"
       d="m -124.70493,232.10675 -22.96984,5.3e-4 -22.96983,-3.8e-4 c -11.41509,0.17811 -11.41909,10.10049 -11.41909,10.10049 l 0.0449,105.47391 c 0,0 0.005,9.92208 11.41994,10.10019 l 22.96983,-5.3e-4 22.96983,3.8e-4 c 11.41509,-0.17811 11.41909,-10.10049 11.41909,-10.10049 l -0.0449,-105.47391 c 0,0 -0.005,-9.92208 -11.41993,-10.10019 z"
       id="path3354-5-9"
       inkscape:connector-curvature="0"
       sodipodi:nodetypes="ccccccccccc" />
    <path
       style="fill:#1a1a1a;fill-rule:evenodd;stroke:#666666;stroke-width:1px;stroke-linecap:butt;stroke-linejoin:miter;stroke-opacity:1"
       d="m -125.40114,230.94305 -22.96984,5.3e-4 -22.96983,-3.8e-4 c -11.41509,0.17811 -11.41909,10.10049 -11.41909,10.10049 l 0.0449,105.47391 c 0,0 0.005,9.92208 11.41994,10.10019 l 22.96983,-5.3e-4 22.96983,3.8e-4 c 11.41509,-0.17811 11.41909,-10.10049 11.41909,-10.10049 l -0.0449,-105.47391 c 0,0 -0.005,-9.92208 -11.41993,-10.10019 z"
       id="path3354-5-7-7"
       inkscape:connector-curvature="0"
       sodipodi:nodetypes="ccccccccccc" />
    <rect
       style="fill:#0085ff;fill-opacity:1;stroke:#0085ff;stroke-width:1.01962495;stroke-miterlimit:4;stroke-dasharray:none;stroke-opacity:1"
       id="rect4181-6"
       width="66.734566"
       height="98.268227"
       x="-181.71475"
       y="245.51968" />
    <ellipse
       style="fill:#ffffb8;fill-opacity:1;stroke:#ffffb8;stroke-width:3.44652486;stroke-miterlimit:4;stroke-dasharray:none;stroke-opacity:1"
       id="path4207"
       cx="335.77847"
       cy="501.02838"
       rx="5.9488258"
       ry="5.4755626"
       inkscape:export-xdpi="89.5"
       inkscape:export-ydpi="89.5" />
    <ellipse
       style="fill:#333333;fill-opacity:1;stroke:#525456;stroke-width:3.44652486;stroke-miterlimit:4;stroke-dasharray:none;stroke-opacity:1"
       id="path4209"
       cx="312.86444"
       cy="500.81769"
       rx="9.0334024"
       ry="8.4239426"
       inkscape:export-xdpi="89.5"
       inkscape:export-ydpi="89.5" />
  </g>
</svg>
