<?xml version="1.0" encoding="UTF-8" standalone="no"?>
<!-- Created with Inkscape (http://www.inkscape.org/) -->

<svg
   xmlns:dc="http://purl.org/dc/elements/1.1/"
   xmlns:cc="http://creativecommons.org/ns#"
   xmlns:rdf="http://www.w3.org/1999/02/22-rdf-syntax-ns#"
   xmlns:svg="http://www.w3.org/2000/svg"
   xmlns="http://www.w3.org/2000/svg"
   xmlns:sodipodi="http://sodipodi.sourceforge.net/DTD/sodipodi-0.dtd"
   xmlns:inkscape="http://www.inkscape.org/namespaces/inkscape"
   width="512"
   height="512"
   viewBox="0 0 512 512.00001"
   id="svg2"
   version="1.1"
   inkscape:version="0.91 r13725"
   sodipodi:docname="playFeature.svg"
   inkscape:export-filename="C:\Projects\Web\ggolda.ca\resources\app-icons\pocketlaw-cld.png"
   inkscape:export-xdpi="89.5"
   inkscape:export-ydpi="89.5">
  <defs
     id="defs4" />
  <sodipodi:namedview
     id="base"
     pagecolor="#ffffff"
     bordercolor="#666666"
     borderopacity="1.0"
     inkscape:pageopacity="0.0"
     inkscape:pageshadow="2"
     inkscape:zoom="0.24748737"
     inkscape:cx="437.64081"
     inkscape:cy="-144.63523"
     inkscape:document-units="px"
     inkscape:current-layer="layer2"
     showgrid="false"
     units="px"
     inkscape:window-width="882"
     inkscape:window-height="413"
     inkscape:window-x="296"
     inkscape:window-y="252"
     inkscape:window-maximized="0" />
  <metadata
     id="metadata7">
    <rdf:RDF>
      <cc:Work
         rdf:about="">
        <dc:format>image/svg+xml</dc:format>
        <dc:type
           rdf:resource="http://purl.org/dc/dcmitype/StillImage" />
        <dc:title></dc:title>
      </cc:Work>
    </rdf:RDF>
  </metadata>
  <g
     inkscape:label="base"
     inkscape:groupmode="layer"
     id="layer1"
     transform="translate(0,-540.36216)"
     style="display:inline"
     sodipodi:insensitive="true">
    <rect
       style="opacity:0.98999999;fill:#ff0000;fill-opacity:1;stroke:#3c71bc;stroke-width:3.97199988;stroke-miterlimit:3.79999995;stroke-dasharray:none;stroke-dashoffset:0;stroke-opacity:1"
       id="rect4548"
       width="6120"
       height="2845.7144"
       x="-4034.2856"
       y="1798.0767" />
  </g>
  <g
     inkscape:groupmode="layer"
     id="layer2"
     inkscape:label="draw"
     style="display:inline">
    <text
       xml:space="preserve"
       style="font-style:normal;font-variant:normal;font-weight:bold;font-stretch:normal;font-size:300.52032471px;line-height:125%;font-family:sans-serif;-inkscape-font-specification:'sans-serif, Bold';text-align:start;letter-spacing:0px;word-spacing:0px;writing-mode:lr-tb;text-anchor:start;display:inline;fill:#ffffff;fill-opacity:1;stroke:none;stroke-width:1px;stroke-linecap:butt;stroke-linejoin:miter;stroke-opacity:1"
       x="-1755.658"
       y="2435.8647"
       id="text4569-6-2-7-3-0-2-2"
       sodipodi:linespacing="125%"
       transform="scale(1.0036184,0.99639465)"><tspan
         sodipodi:role="line"
         id="tspan4571-9-4-8-8-4-5-4"
         x="-1755.658"
         y="2435.8647">LAW</tspan></text>
    <path
       style="display:inline;fill:#b1b033;fill-opacity:1;fill-rule:evenodd;stroke:#b1b033;stroke-width:25.34176826;stroke-linecap:butt;stroke-linejoin:miter;stroke-miterlimit:4;stroke-dasharray:none;stroke-opacity:1"
       d="m -1516.3851,1702.9453 -176.7342,-0.7424 c 13.9517,26.5377 54.4869,49.6977 90.318,49.1293 44.072,1.8526 86.4162,-48.3869 86.4162,-48.3869 z"
       id="path4624-4-3-5-6-5-1-1-4"
       inkscape:connector-curvature="0"
       sodipodi:nodetypes="cccc" />
    <path
       style="display:inline;fill:none;fill-rule:evenodd;stroke:#b1b033;stroke-width:25.34176826;stroke-linecap:butt;stroke-linejoin:miter;stroke-miterlimit:4;stroke-dasharray:none;stroke-opacity:1"
       d="m -1701.359,1694.9984 97.5373,-172.1636 101.4997,173.7383"
       id="path4641-7-7-98-6-2-8-2-2"
       inkscape:connector-curvature="0"
       sodipodi:nodetypes="ccc" />
    <path
       style="display:inline;fill:none;fill-rule:evenodd;stroke:#b1b033;stroke-width:25.34176826;stroke-linecap:butt;stroke-linejoin:miter;stroke-miterlimit:4;stroke-dasharray:none;stroke-opacity:1"
       d="m -1604.4312,1508.4004 132.8946,-1.5747 0,-57.7374"
       id="path4643-6-8-1-2-4-1-8-5"
       inkscape:connector-curvature="0"
       sodipodi:nodetypes="ccc" />
    <path
       style="display:inline;fill:#b1b033;fill-opacity:1;fill-rule:evenodd;stroke:#b1b033;stroke-width:25.34176826;stroke-linecap:butt;stroke-linejoin:miter;stroke-miterlimit:4;stroke-dasharray:none;stroke-opacity:1"
       d="m -1425.3038,1703.0429 176.7339,-0.7421 c -13.9517,26.5373 -54.4869,49.6977 -90.3177,49.1293 -44.0723,1.8523 -86.4162,-48.3872 -86.4162,-48.3872 z"
       id="path4624-8-6-5-4-6-3-9-3-6"
       inkscape:connector-curvature="0"
       sodipodi:nodetypes="cccc" />
    <path
       style="display:inline;fill:none;fill-rule:evenodd;stroke:#b1b033;stroke-width:25.34176826;stroke-linecap:butt;stroke-linejoin:miter;stroke-miterlimit:4;stroke-dasharray:none;stroke-opacity:1"
       d="m -1240.3302,1695.096 -97.5373,-172.1633 -101.4997,173.7379"
       id="path4641-1-9-5-87-8-7-2-9-0"
       inkscape:connector-curvature="0"
       sodipodi:nodetypes="ccc" />
    <path
       style="display:inline;fill:none;fill-rule:evenodd;stroke:#b1b033;stroke-width:25.34176826;stroke-linecap:butt;stroke-linejoin:miter;stroke-miterlimit:4;stroke-dasharray:none;stroke-opacity:1"
       d="m -1337.2577,1508.4983 -132.8946,-1.5747 0,-57.7378"
       id="path4643-9-2-6-4-8-0-3-7-53"
       inkscape:connector-curvature="0"
       sodipodi:nodetypes="ccc" />
    <flowRoot
       xml:space="preserve"
       id="flowRoot4561-7-1-1-1-8-3-6"
       style="font-style:normal;font-variant:normal;font-weight:bold;font-stretch:normal;font-size:39.99994278px;line-height:125%;font-family:sans-serif;-inkscape-font-specification:'sans-serif, Bold';text-align:start;letter-spacing:0px;word-spacing:0px;writing-mode:lr-tb;text-anchor:start;display:inline;fill:#ffffff;fill-opacity:1;stroke:none;stroke-width:1px;stroke-linecap:butt;stroke-linejoin:miter;stroke-opacity:1"
       transform="matrix(4.3459765,0,0,5.6315701,11580.034,-6486.0828)"><flowRegion
         id="flowRegion4563-6-1-4-8-5-8-6"><rect
           id="rect4565-3-6-6-8-3-7-7"
           width="238.57143"
           height="237.14285"
           x="-3065.7144"
           y="1499.1428"
           style="font-style:normal;font-variant:normal;font-weight:bold;font-stretch:normal;font-size:39.99994278px;line-height:125%;font-family:sans-serif;-inkscape-font-specification:'sans-serif, Bold';text-align:start;writing-mode:lr-tb;text-anchor:start;fill:#ffffff" /></flowRegion><flowPara
         id="flowPara4567-5-0-5-9-1-5-3">POCKET</flowPara></flowRoot>    <path
       style="display:inline;fill:#ffffff;fill-opacity:1;stroke:#222222;stroke-width:0;stroke-miterlimit:4;stroke-dasharray:none;stroke-opacity:1"
       d="m -126.28516,1983.7237 c -0.25334,-7.0787 -1.82504,-79.1659 -0.94537,-164.2527 l 1.37558,-133.0769 -1.7193,-17.7383 c -0.26463,-2.7302 -3.69975,-12.3192 -4.49072,-14.4792 -1.95553,-5.3416 -10.57963,-3.1536 -11.34852,-11.9545 l -10.09328,-5.0386 -127.14326,0.6168 -157.51998,-5.4585 15.22218,-14.6615 c 4.14848,-4.3888 27.43053,-11.7607 35.82094,-12.7961 4.66497,-0.5754 55.61329,-9.1241 145.93843,-0.76 l 145.825295,2.1485 0.44441,195.3329 -1.03714,164.6598 -2.59396,5.3423 -26.931215,34.5851 z"
       id="path4393-4-3-4-4-7-4-3-1-3-0-96"
       inkscape:connector-curvature="0"
       sodipodi:nodetypes="sscscsccccsscccccs" />
    <path
       style="display:inline;fill:#ffffff;fill-opacity:1;stroke:#222222;stroke-width:0;stroke-miterlimit:4;stroke-dasharray:none;stroke-opacity:1"
       d="m -150.05622,2010.0861 c -0.25334,-7.0787 -1.82504,-79.1659 -0.94537,-164.2527 l 1.37559,-133.0768 -1.7193,-17.7384 c -0.26464,-2.7301 -3.69976,-12.3191 -4.49072,-14.4792 -1.95553,-5.3415 -10.57959,-3.1537 -11.34848,-11.9544 l -10.09329,-5.0387 -127.14326,0.6168 -157.51998,-5.4584 15.22219,-14.6615 c 4.14848,-4.3888 27.43052,-11.7607 35.82092,-12.7961 4.66499,-0.5755 55.6133,-9.1241 145.93843,-0.7601 l 145.82526,2.1486 0.44441,195.3328 -1.03714,164.6597 -2.59396,5.3424 -26.93121,34.5852 z"
       id="path4393-4-3-4-4-7-4-3-1-3-0-1-4"
       inkscape:connector-curvature="0"
       sodipodi:nodetypes="sscscsccccsscccccs" />
    <path
       style="display:inline;fill:#000080;fill-rule:evenodd;stroke:#272727;stroke-width:14.75471973;stroke-linecap:butt;stroke-linejoin:miter;stroke-miterlimit:4;stroke-dasharray:none;stroke-opacity:1"
       d="m -487.1703,1637.772 c -1.2248,-14.8453 7.51099,-32.8917 18.76492,-41.6101 11.30629,-8.7589 26.41105,-16.4257 26.41105,-16.4257 0,0 15.73961,-8.4978 24.03769,-11.4614 8.29794,-2.9636 27.3174,-5.9681 27.3174,-5.9681 l 326.216935,1.2213 c 0,0 6.85687,2.9113 8.21593,5.4918 1.381,2.6221 2.19413,7.476 2.19413,7.476 l 0.0362,371.6694 c 0,0 -0.59273,7.1126 -3.55621,8.298 -2.96364,1.1854 -9.48355,4.149 -9.48355,4.149 l -22.52325,0.5928 0.31439,-363.5284 -286.871675,-0.053 -22.49522,2.8286 -20.35807,5.736 -15.7305,9.1685 c 0,0 -8.03488,5.0224 -9.27202,9.1957 -0.92163,3.1091 -1.57016,4.4492 2.05811,9.5083 3.27697,4.5694 21.61927,4.113 21.61927,4.113 l 74.08953,0 200.33817,0 c 0,0 11.8543,3.5564 12.44703,6.5199 0.59274,2.9636 4.14896,11.2616 4.14896,11.2616 l -1.1854,366.2989 c 0,0 -1.18542,9.4835 -4.14902,10.6689 -2.96349,1.1854 -7.70536,4.149 -7.70536,4.149 l -334.88475,0 c 0,0 -4.14898,-1.7782 -7.11258,-4.7418 -2.96363,-2.9636 -4.74172,-9.4834 -4.74172,-9.4834 4.42452,-126.4296 1.85977,-385.0755 1.85977,-385.0755 z"
       id="path4264-4-5-8-6-4-0-5-5-8-6-2-1-3-1"
       inkscape:connector-curvature="0"
       sodipodi:nodetypes="cscsccsccscccccccsscccsccsccsccc" />
    <path
       style="display:inline;fill:#ff0000;fill-rule:evenodd;stroke:none;stroke-width:1px;stroke-linecap:butt;stroke-linejoin:miter;stroke-opacity:1"
       d="m -312.45128,1966.5293 3.24831,-55.8709 -86.40503,13.643 14.29256,-25.3368 -57.17019,-64.9663 25.33678,-5.8468 -6.49661,-33.1328 34.43206,5.847 9.09527,-25.3369 36.38103,42.228 -25.98647,-94.8504 24.68715,5.1972 36.66907,-39.051 34.48699,38.8297 24.68715,-5.1972 -25.98648,94.8506 36.38107,-42.2281 9.09526,25.3368 34.43206,-5.8468 -6.49665,33.1327 25.33684,5.8469 -57.17024,64.9662 14.29254,25.3367 -86.40495,-13.6428 3.24829,55.8708 -6.99289,-0.5391 z"
       id="path3338-1"
       inkscape:connector-curvature="0"
       sodipodi:nodetypes="ccccccccccccccccccccccccccc" />
    <path
       style="display:inline;fill:#ffffff;fill-opacity:0.99607843;fill-rule:evenodd;stroke:#fbfbfb;stroke-width:8.1292448;stroke-linecap:butt;stroke-linejoin:miter;stroke-miterlimit:4;stroke-dasharray:none;stroke-opacity:0.99934645"
       d="m -320.0707,1865.5949 -57.06159,-0.2366 c 4.50456,8.4577 17.59204,15.8388 29.1607,15.6576 14.22937,0.5905 27.90089,-15.421 27.90089,-15.421 z"
       id="path4624-4-3-5-6-5-1-1-4-6-0"
       inkscape:connector-curvature="0"
       sodipodi:nodetypes="cccc" />
    <path
       style="display:inline;fill:none;fill-rule:evenodd;stroke:#fbfbfb;stroke-width:10.08952999;stroke-linecap:butt;stroke-linejoin:miter;stroke-miterlimit:4;stroke-dasharray:none;stroke-opacity:0.99934645"
       d="m -379.7926,1863.0622 31.49156,-54.869 32.77087,55.3709"
       id="path4641-7-7-98-6-2-8-2-2-7-1"
       inkscape:connector-curvature="0"
       sodipodi:nodetypes="ccc" />
    <path
       style="display:inline;fill:none;fill-rule:evenodd;stroke:#fbfbfb;stroke-width:10.08952999;stroke-linecap:butt;stroke-linejoin:miter;stroke-miterlimit:4;stroke-dasharray:none;stroke-opacity:0.99934645"
       d="m -348.49783,1803.5929 42.90726,-0.5019 0,-18.4011"
       id="path4643-6-8-1-2-4-1-8-5-7-4"
       inkscape:connector-curvature="0"
       sodipodi:nodetypes="ccc" />
    <path
       style="display:inline;fill:#ffffff;fill-opacity:0.99607843;fill-rule:evenodd;stroke:#fbfbfb;stroke-width:8.1292448;stroke-linecap:butt;stroke-linejoin:miter;stroke-miterlimit:4;stroke-dasharray:none;stroke-opacity:0.99934645"
       d="m -290.66353,1865.626 57.06145,-0.2365 c -4.50455,8.4575 -17.59198,15.8387 -29.16057,15.6576 -14.22949,0.5904 -27.90088,-15.4211 -27.90088,-15.4211 z"
       id="path4624-8-6-5-4-6-3-9-3-6-1-7"
       inkscape:connector-curvature="0"
       sodipodi:nodetypes="cccc" />
    <path
       style="display:inline;fill:none;fill-rule:evenodd;stroke:#fbfbfb;stroke-width:10.08952999;stroke-linecap:butt;stroke-linejoin:miter;stroke-miterlimit:4;stroke-dasharray:none;stroke-opacity:0.99934645"
       d="m -230.94171,1863.0933 -31.49156,-54.8691 -32.77088,55.371"
       id="path4641-1-9-5-87-8-7-2-9-0-9-2"
       inkscape:connector-curvature="0"
       sodipodi:nodetypes="ccc" />
    <path
       style="display:inline;fill:none;fill-rule:evenodd;stroke:#fbfbfb;stroke-width:10.08952999;stroke-linecap:butt;stroke-linejoin:miter;stroke-miterlimit:4;stroke-dasharray:none;stroke-opacity:0.99934645"
       d="m -262.23639,1803.6239 -42.90728,-0.5018 0,-18.4011"
       id="path4643-9-2-6-4-8-0-3-7-53-6-1"
       inkscape:connector-curvature="0"
       sodipodi:nodetypes="ccc" />
    <text
       xml:space="preserve"
       style="font-style:normal;font-variant:normal;font-weight:bold;font-stretch:normal;font-size:114.27205658px;line-height:125%;font-family:'Adobe Gothic Std';-inkscape-font-specification:'Adobe Gothic Std, Bold';text-align:start;letter-spacing:0px;word-spacing:0px;writing-mode:lr-tb;text-anchor:start;display:inline;fill:#000080;fill-opacity:1;stroke:none;stroke-width:1px;stroke-linecap:butt;stroke-linejoin:miter;stroke-opacity:1"
       x="54.319195"
       y="1634.4933"
       id="text4668-2-9"
       sodipodi:linespacing="125%"
       transform="scale(0.82245629,1.2158701)"><tspan
         sodipodi:role="line"
         id="tspan4674-1-0"
         x="54.319195"
         y="1634.4933">DICTIONARY</tspan></text>
    <text
       xml:space="preserve"
       style="font-style:normal;font-variant:normal;font-weight:bold;font-stretch:normal;font-size:114.27101135px;line-height:125%;font-family:'Adobe Gothic Std';-inkscape-font-specification:'Adobe Gothic Std, Bold';text-align:start;letter-spacing:0px;word-spacing:0px;writing-mode:lr-tb;text-anchor:start;display:inline;fill:#000080;fill-opacity:1;stroke:none;stroke-width:1px;stroke-linecap:butt;stroke-linejoin:miter;stroke-opacity:1"
       x="55.885113"
       y="1525.3824"
       id="text4668-2-9-1"
       sodipodi:linespacing="125%"
       transform="scale(0.82245629,1.2158701)"><tspan
         sodipodi:role="line"
         id="tspan4600"
         x="55.885113"
         y="1525.3824">LEGAL</tspan></text>
    <text
       xml:space="preserve"
       style="font-style:normal;font-variant:normal;font-weight:bold;font-stretch:normal;font-size:114.27101135px;line-height:125%;font-family:'Adobe Gothic Std';-inkscape-font-specification:'Adobe Gothic Std, Bold';text-align:start;letter-spacing:0px;word-spacing:0px;writing-mode:lr-tb;text-anchor:start;display:inline;fill:#000080;fill-opacity:1;stroke:none;stroke-width:1px;stroke-linecap:butt;stroke-linejoin:miter;stroke-opacity:1"
       x="57.385418"
       y="1418.8304"
       id="text4668-2-9-10"
       sodipodi:linespacing="125%"
       transform="scale(0.82245629,1.2158701)"><tspan
         sodipodi:role="line"
         id="tspan4598"
         x="57.385418"
         y="1418.8304">CANADIAN</tspan></text>
    <text
       xml:space="preserve"
       style="font-style:normal;font-variant:normal;font-weight:bold;font-stretch:normal;font-size:114.32396698px;line-height:125%;font-family:'Adobe Gothic Std';-inkscape-font-specification:'Adobe Gothic Std, Bold';text-align:start;letter-spacing:0px;word-spacing:0px;writing-mode:lr-tb;text-anchor:start;display:inline;fill:#ffffff;fill-opacity:1;stroke:none;stroke-width:1px;stroke-linecap:butt;stroke-linejoin:miter;stroke-opacity:1"
       x="50.087135"
       y="1635.0183"
       id="text4668-2-9-2"
       sodipodi:linespacing="125%"
       transform="scale(0.82208453,1.2164199)"><tspan
         sodipodi:role="line"
         id="tspan4674-1-0-1"
         x="50.087135"
         y="1635.0183">DICTIONARY</tspan></text>
    <text
       xml:space="preserve"
       style="font-style:normal;font-variant:normal;font-weight:bold;font-stretch:normal;font-size:114.27101135px;line-height:125%;font-family:'Adobe Gothic Std';-inkscape-font-specification:'Adobe Gothic Std, Bold';text-align:start;letter-spacing:0px;word-spacing:0px;writing-mode:lr-tb;text-anchor:start;display:inline;fill:#ffffff;fill-opacity:1;stroke:none;stroke-width:1px;stroke-linecap:butt;stroke-linejoin:miter;stroke-opacity:1"
       x="51.630413"
       y="1526.6479"
       id="text4668-2-9-1-6"
       sodipodi:linespacing="125%"
       transform="scale(0.82245629,1.2158701)"><tspan
         sodipodi:role="line"
         id="tspan4600-3"
         x="51.630413"
         y="1526.6479">LEGAL</tspan></text>
    <text
       xml:space="preserve"
       style="font-style:normal;font-variant:normal;font-weight:bold;font-stretch:normal;font-size:114.27101135px;line-height:125%;font-family:'Adobe Gothic Std';-inkscape-font-specification:'Adobe Gothic Std, Bold';text-align:start;letter-spacing:0px;word-spacing:0px;writing-mode:lr-tb;text-anchor:start;display:inline;fill:#ffffff;fill-opacity:1;stroke:none;stroke-width:1px;stroke-linecap:butt;stroke-linejoin:miter;stroke-opacity:1"
       x="53.130718"
       y="1420.0959"
       id="text4668-2-9-10-8"
       sodipodi:linespacing="125%"
       transform="scale(0.82245629,1.2158701)"><tspan
         sodipodi:role="line"
         id="tspan4598-8"
         x="53.130718"
         y="1420.0959">CANADIAN</tspan></text>
    <path
       style="display:inline;fill:#ffffff;fill-opacity:1;stroke:#222222;stroke-width:0;stroke-miterlimit:4;stroke-dasharray:none;stroke-opacity:1"
       d="m 396.66363,438.8926 c -0.2533,-7.0788 -1.825,-79.166 -0.9453,-164.2527 l 1.3756,-133.077 -1.7193,-17.7382 c -0.2647,-2.7302 -3.6998,-12.3192 -4.4908,-14.4792 -1.9555,-5.3416 -10.5796,-3.1537 -11.3485,-11.954499 l -10.0933,-5.0386 -127.1432,0.6168 -157.520001,-5.4585 15.222201,-14.6615 c 4.1485,-4.3888 27.4305,-11.7608 35.8209,-12.7961 4.665,-0.5754 55.6133,-9.1241 145.9384,-0.76 l 145.8253,2.1484 0.4444,195.332999 -1.0371,164.6598 -2.594,5.3422 -26.9312,34.5852 z"
       id="path4393-4-3-4-4-7-4-3-1-3-0-96-1"
       inkscape:connector-curvature="0"
       sodipodi:nodetypes="sscscsccccsscccccs" />
    <path
       style="display:inline;fill:#ffffff;fill-opacity:1;stroke:#222222;stroke-width:0;stroke-miterlimit:4;stroke-dasharray:none;stroke-opacity:1"
       d="m 372.89263,465.255 c -0.2534,-7.0788 -1.8251,-79.166 -0.9454,-164.2527 l 1.3756,-133.0768 -1.7193,-17.7384 c -0.2646,-2.7301 -3.6998,-12.3191 -4.4907,-14.4792 -1.9555,-5.3415 -10.5796,-3.1537 -11.3485,-11.9544 l -10.0933,-5.0387 -127.1432,0.6168 -157.520001,-5.4584 15.2222,-14.661499 c 4.1484,-4.3888 27.430501,-11.7607 35.820901,-12.7961 4.665,-0.5755 55.6133,-9.1241 145.9384,-0.7601 l 145.8253,2.1485 0.4444,195.332899 -1.0372,164.6597 -2.5939,5.3423 -26.9312,34.5853 z"
       id="path4393-4-3-4-4-7-4-3-1-3-0-1-4-1"
       inkscape:connector-curvature="0"
       sodipodi:nodetypes="sscscsccccsscccccs" />
    <path
       style="display:inline;fill:#5e2126;fill-opacity:1;fill-rule:evenodd;stroke:#272727;stroke-width:14.75471973;stroke-linecap:butt;stroke-linejoin:miter;stroke-miterlimit:4;stroke-dasharray:none;stroke-opacity:1"
       d="m 35.778529,92.940901 c -1.2248,-14.8453 7.511,-32.8917 18.7649,-41.6101 11.3063,-8.7589 26.4111,-16.4257 26.4111,-16.4257 0,0 15.7396,-8.4978 24.037701,-11.4614 8.2979,-2.9636 27.3174,-5.9681 27.3174,-5.9681 l 326.2169,1.2213 c 0,0 6.8569,2.9113 8.2159,5.4917 1.381,2.6222 2.1942,7.4761 2.1942,7.4761 l 0.036,371.669399 c 0,0 -0.5928,7.1126 -3.5563,8.298 -2.9636,1.1854 -9.4835,4.149 -9.4835,4.149 l -22.5233,0.5928 0.3144,-363.528399 -286.8716,-0.053 -22.4953,2.8287 -20.358,5.736 -15.730501,9.1685 c 0,0 -8.0349,5.0223 -9.272,9.1957 -0.9217,3.1091 -1.5702,4.4492 2.0581,9.5083 3.2769,4.5693 21.619201,4.113 21.619201,4.113 l 74.0896,0 200.3381,0 c 0,0 11.8543,3.5564 12.4471,6.5199 0.5927,2.963599 4.1489,11.261599 4.1489,11.261599 l -1.1854,366.2989 c 0,0 -1.1854,9.4834 -4.149,10.6689 -2.9635,1.1854 -7.7054,4.149 -7.7054,4.149 l -334.884701,0 c 0,0 -4.149,-1.7782 -7.1126,-4.7418 -2.9636,-2.9636 -4.7417,-9.4835 -4.7417,-9.4835 4.4245,-126.4296 1.8598,-385.075399 1.8598,-385.075399 z"
       id="path4264-4-5-8-6-4-0-5-5-8-6-2-1-3-1-4"
       inkscape:connector-curvature="0"
       sodipodi:nodetypes="cscsccsccscccccccsscccsccsccsccc" />
    <path
       style="display:inline;fill:#ff0000;fill-rule:evenodd;stroke:none;stroke-width:1px;stroke-linecap:butt;stroke-linejoin:miter;stroke-opacity:1"
       d="m 212.83523,362.9612 2.6317,-45.2643 -70.002,11.0529 11.5793,-20.5268 -46.3171,-52.6331 20.5269,-4.7369 -5.2633,-26.8428 27.8955,4.7369 7.3686,-20.5269 29.4745,34.2115 -21.0532,-76.8442 20.0005,4.2106 29.7079,-31.6375 27.94,31.4582 20.0005,-4.2105 -21.0532,76.8442 29.4745,-34.2115 7.3687,20.5269 27.8954,-4.7369 -5.2633,26.8428 20.5269,4.7369 -46.3171,52.6331 11.5793,20.5268 -70.0019,-11.0528 2.6317,45.2642 -5.6654,-0.4367 z"
       id="path3338-1-2"
       inkscape:connector-curvature="0"
       sodipodi:nodetypes="ccccccccccccccccccccccccccc" />
    <path
       style="display:inline;fill:#ffffff;fill-opacity:0.99607843;fill-rule:evenodd;stroke:#fbfbfb;stroke-width:6.58599424;stroke-linecap:butt;stroke-linejoin:miter;stroke-miterlimit:4;stroke-dasharray:none;stroke-opacity:0.99934645"
       d="m 206.66223,281.1882 -46.229,-0.1917 c 3.6494,6.8521 14.2524,12.832 23.6248,12.6852 11.5281,0.4784 22.6042,-12.4935 22.6042,-12.4935 z"
       id="path4624-4-3-5-6-5-1-1-4-6-0-8"
       inkscape:connector-curvature="0"
       sodipodi:nodetypes="cccc" />
    <path
       style="display:inline;fill:none;fill-rule:evenodd;stroke:#fbfbfb;stroke-width:8.17413998;stroke-linecap:butt;stroke-linejoin:miter;stroke-miterlimit:4;stroke-dasharray:none;stroke-opacity:0.99934645"
       d="m 158.27793,279.1363 25.5132,-44.4527 26.5497,44.8593"
       id="path4641-7-7-98-6-2-8-2-2-7-1-3"
       inkscape:connector-curvature="0"
       sodipodi:nodetypes="ccc" />
    <path
       style="display:inline;fill:none;fill-rule:evenodd;stroke:#fbfbfb;stroke-width:8.17413998;stroke-linecap:butt;stroke-linejoin:miter;stroke-miterlimit:4;stroke-dasharray:none;stroke-opacity:0.99934645"
       d="m 183.63173,230.9566 34.7618,-0.4067 0,-14.9078"
       id="path4643-6-8-1-2-4-1-8-5-7-4-0"
       inkscape:connector-curvature="0"
       sodipodi:nodetypes="ccc" />
    <path
       style="display:inline;fill:#ffffff;fill-opacity:0.99607843;fill-rule:evenodd;stroke:#fbfbfb;stroke-width:6.58599424;stroke-linecap:butt;stroke-linejoin:miter;stroke-miterlimit:4;stroke-dasharray:none;stroke-opacity:0.99934645"
       d="m 230.48683,281.2134 46.2289,-0.1916 c -3.6494,6.8519 -14.2523,12.8319 -23.6247,12.6852 -11.5282,0.4783 -22.6042,-12.4936 -22.6042,-12.4936 z"
       id="path4624-8-6-5-4-6-3-9-3-6-1-7-2"
       inkscape:connector-curvature="0"
       sodipodi:nodetypes="cccc" />
    <path
       style="display:inline;fill:none;fill-rule:evenodd;stroke:#fbfbfb;stroke-width:8.17413998;stroke-linecap:butt;stroke-linejoin:miter;stroke-miterlimit:4;stroke-dasharray:none;stroke-opacity:0.99934645"
       d="m 278.87103,279.1615 -25.5132,-44.4528 -26.5497,44.8594"
       id="path4641-1-9-5-87-8-7-2-9-0-9-2-3"
       inkscape:connector-curvature="0"
       sodipodi:nodetypes="ccc" />
    <path
       style="display:inline;fill:none;fill-rule:evenodd;stroke:#fbfbfb;stroke-width:8.17413998;stroke-linecap:butt;stroke-linejoin:miter;stroke-miterlimit:4;stroke-dasharray:none;stroke-opacity:0.99934645"
       d="m 253.51733,230.9817 -34.7618,-0.4065 0,-14.9079"
       id="path4643-9-2-6-4-8-0-3-7-53-6-1-6"
       inkscape:connector-curvature="0"
       sodipodi:nodetypes="ccc" />
    <text
       xml:space="preserve"
       style="font-style:normal;font-variant:normal;font-weight:bold;font-stretch:normal;font-size:68.47370148px;line-height:125%;font-family:'Adobe Gothic Std';-inkscape-font-specification:'Adobe Gothic Std, Bold';text-align:start;letter-spacing:0px;word-spacing:0px;writing-mode:lr-tb;text-anchor:start;display:inline;fill:#000000;fill-opacity:1;stroke:none;stroke-width:1px;stroke-linecap:butt;stroke-linejoin:miter;stroke-opacity:1;"
       x="68.201721"
       y="368.90762"
       id="text4668-2-9-25"
       sodipodi:linespacing="125%"
       transform="scale(0.82245629,1.2158701)"><tspan
         sodipodi:role="line"
         id="tspan4674-1-0-3"
         x="68.201721"
         y="368.90762">DICTIONARY</tspan></text>
    <text
       xml:space="preserve"
       style="font-style:normal;font-variant:normal;font-weight:bold;font-stretch:normal;font-size:68.50481415px;line-height:125%;font-family:'Adobe Gothic Std';-inkscape-font-specification:'Adobe Gothic Std, Bold';text-align:start;letter-spacing:0px;word-spacing:0px;writing-mode:lr-tb;text-anchor:start;display:inline;fill:#ffffff;fill-opacity:1;stroke:none;stroke-width:1px;stroke-linecap:butt;stroke-linejoin:miter;stroke-opacity:1"
       x="65.681923"
       y="369.49817"
       id="text4668-2-9-2-2"
       sodipodi:linespacing="125%"
       transform="scale(0.82208454,1.2164199)"><tspan
         sodipodi:role="line"
         id="tspan4674-1-0-1-8"
         x="65.681923"
         y="369.49817">DICTIONARY</tspan></text>
  </g>
</svg>
