<?xml version="1.0" encoding="UTF-8" standalone="no"?>
<!-- Created with Inkscape (http://www.inkscape.org/) -->

<svg
   xmlns:dc="http://purl.org/dc/elements/1.1/"
   xmlns:cc="http://creativecommons.org/ns#"
   xmlns:rdf="http://www.w3.org/1999/02/22-rdf-syntax-ns#"
   xmlns:svg="http://www.w3.org/2000/svg"
   xmlns="http://www.w3.org/2000/svg"
   xmlns:sodipodi="http://sodipodi.sourceforge.net/DTD/sodipodi-0.dtd"
   xmlns:inkscape="http://www.inkscape.org/namespaces/inkscape"
   width="512"
   height="512"
   viewBox="0 0 512 512.00001"
   id="svg2"
   version="1.1"
   inkscape:version="0.91 r13725"
   sodipodi:docname="playFeature.svg"
   inkscape:export-filename="C:\Projects\Mobile\React-Native\CanadianLegalDictionary\screenshots\logos\banner.png"
   inkscape:export-xdpi="90"
   inkscape:export-ydpi="90">
  <defs
     id="defs4" />
  <sodipodi:namedview
     id="base"
     pagecolor="#ffffff"
     bordercolor="#666666"
     borderopacity="1.0"
     inkscape:pageopacity="0.0"
     inkscape:pageshadow="2"
     inkscape:zoom="0.7"
     inkscape:cx="417.53957"
     inkscape:cy="100.00158"
     inkscape:document-units="px"
     inkscape:current-layer="layer1"
     showgrid="false"
     units="px"
     inkscape:window-width="1474"
     inkscape:window-height="841"
     inkscape:window-x="-8"
     inkscape:window-y="-8"
     inkscape:window-maximized="1" />
  <metadata
     id="metadata7">
    <rdf:RDF>
      <cc:Work
         rdf:about="">
        <dc:format>image/svg+xml</dc:format>
        <dc:type
           rdf:resource="http://purl.org/dc/dcmitype/StillImage" />
        <dc:title></dc:title>
      </cc:Work>
    </rdf:RDF>
  </metadata>
  <g
     inkscape:label="base"
     inkscape:groupmode="layer"
     id="layer1"
     transform="translate(0,-540.36216)"
     style="display:inline">
    <rect
       style="opacity:0.98999999;fill:#ff0000;fill-opacity:1;stroke:#3c71bc;stroke-width:3.97199988;stroke-miterlimit:3.79999995;stroke-dasharray:none;stroke-dashoffset:0;stroke-opacity:1"
       id="rect4548"
       width="6120"
       height="2845.7144"
       x="-4034.2856"
       y="1772.3624" />
  </g>
  <g
     inkscape:groupmode="layer"
     id="layer2"
     inkscape:label="draw"
     style="display:inline">
    <text
       xml:space="preserve"
       style="font-style:normal;font-variant:normal;font-weight:bold;font-stretch:normal;font-size:300.52032471px;line-height:125%;font-family:sans-serif;-inkscape-font-specification:'sans-serif, Bold';text-align:start;letter-spacing:0px;word-spacing:0px;writing-mode:lr-tb;text-anchor:start;display:inline;fill:#ffffff;fill-opacity:1;stroke:none;stroke-width:1px;stroke-linecap:butt;stroke-linejoin:miter;stroke-opacity:1"
       x="-1755.658"
       y="2435.8647"
       id="text4569-6-2-7-3-0-2-2"
       sodipodi:linespacing="125%"
       transform="scale(1.0036184,0.99639465)"><tspan
         sodipodi:role="line"
         id="tspan4571-9-4-8-8-4-5-4"
         x="-1755.658"
         y="2435.8647">LAW</tspan></text>
    <path
       style="display:inline;fill:#b1b033;fill-opacity:1;fill-rule:evenodd;stroke:#b1b033;stroke-width:25.34176826;stroke-linecap:butt;stroke-linejoin:miter;stroke-miterlimit:4;stroke-dasharray:none;stroke-opacity:1"
       d="m -1516.3851,1702.9453 -176.7342,-0.7424 c 13.9517,26.5377 54.4869,49.6977 90.318,49.1293 44.072,1.8526 86.4162,-48.3869 86.4162,-48.3869 z"
       id="path4624-4-3-5-6-5-1-1-4"
       inkscape:connector-curvature="0"
       sodipodi:nodetypes="cccc" />
    <path
       style="display:inline;fill:none;fill-rule:evenodd;stroke:#b1b033;stroke-width:25.34176826;stroke-linecap:butt;stroke-linejoin:miter;stroke-miterlimit:4;stroke-dasharray:none;stroke-opacity:1"
       d="m -1701.359,1694.9984 97.5373,-172.1636 101.4997,173.7383"
       id="path4641-7-7-98-6-2-8-2-2"
       inkscape:connector-curvature="0"
       sodipodi:nodetypes="ccc" />
    <path
       style="display:inline;fill:none;fill-rule:evenodd;stroke:#b1b033;stroke-width:25.34176826;stroke-linecap:butt;stroke-linejoin:miter;stroke-miterlimit:4;stroke-dasharray:none;stroke-opacity:1"
       d="m -1604.4312,1508.4004 132.8946,-1.5747 0,-57.7374"
       id="path4643-6-8-1-2-4-1-8-5"
       inkscape:connector-curvature="0"
       sodipodi:nodetypes="ccc" />
    <path
       style="display:inline;fill:#b1b033;fill-opacity:1;fill-rule:evenodd;stroke:#b1b033;stroke-width:25.34176826;stroke-linecap:butt;stroke-linejoin:miter;stroke-miterlimit:4;stroke-dasharray:none;stroke-opacity:1"
       d="m -1425.3038,1703.0429 176.7339,-0.7421 c -13.9517,26.5373 -54.4869,49.6977 -90.3177,49.1293 -44.0723,1.8523 -86.4162,-48.3872 -86.4162,-48.3872 z"
       id="path4624-8-6-5-4-6-3-9-3-6"
       inkscape:connector-curvature="0"
       sodipodi:nodetypes="cccc" />
    <path
       style="display:inline;fill:none;fill-rule:evenodd;stroke:#b1b033;stroke-width:25.34176826;stroke-linecap:butt;stroke-linejoin:miter;stroke-miterlimit:4;stroke-dasharray:none;stroke-opacity:1"
       d="m -1240.3302,1695.096 -97.5373,-172.1633 -101.4997,173.7379"
       id="path4641-1-9-5-87-8-7-2-9-0"
       inkscape:connector-curvature="0"
       sodipodi:nodetypes="ccc" />
    <path
       style="display:inline;fill:none;fill-rule:evenodd;stroke:#b1b033;stroke-width:25.34176826;stroke-linecap:butt;stroke-linejoin:miter;stroke-miterlimit:4;stroke-dasharray:none;stroke-opacity:1"
       d="m -1337.2577,1508.4983 -132.8946,-1.5747 0,-57.7378"
       id="path4643-9-2-6-4-8-0-3-7-53"
       inkscape:connector-curvature="0"
       sodipodi:nodetypes="ccc" />
    <flowRoot
       xml:space="preserve"
       id="flowRoot4561-7-1-1-1-8-3-6"
       style="font-style:normal;font-variant:normal;font-weight:bold;font-stretch:normal;font-size:39.99994278px;line-height:125%;font-family:sans-serif;-inkscape-font-specification:'sans-serif, Bold';text-align:start;letter-spacing:0px;word-spacing:0px;writing-mode:lr-tb;text-anchor:start;display:inline;fill:#ffffff;fill-opacity:1;stroke:none;stroke-width:1px;stroke-linecap:butt;stroke-linejoin:miter;stroke-opacity:1"
       transform="matrix(4.3459765,0,0,5.6315701,11580.034,-6486.0828)"><flowRegion
         id="flowRegion4563-6-1-4-8-5-8-6"><rect
           id="rect4565-3-6-6-8-3-7-7"
           width="238.57143"
           height="237.14285"
           x="-3065.7144"
           y="1499.1428"
           style="font-style:normal;font-variant:normal;font-weight:bold;font-stretch:normal;font-size:39.99994278px;line-height:125%;font-family:sans-serif;-inkscape-font-specification:'sans-serif, Bold';text-align:start;writing-mode:lr-tb;text-anchor:start;fill:#ffffff" /></flowRegion><flowPara
         id="flowPara4567-5-0-5-9-1-5-3">POCKET</flowPara></flowRoot>    <path
       style="display:inline;fill:#ffffff;fill-opacity:1;stroke:#222222;stroke-width:0;stroke-miterlimit:4;stroke-dasharray:none;stroke-opacity:1"
       d="m 399.42913,440.86658 c -0.25334,-7.07876 -1.82504,-79.16596 -0.94537,-164.25269 l 1.37558,-133.07697 -1.7193,-17.73826 c -0.26463,-2.73023 -3.69975,-12.31919 -4.49072,-14.47923 -1.95553,-5.34154 -10.57963,-3.15362 -11.34852,-11.954481 L 372.20752,94.326391 245.06426,94.943192 87.544273,89.484633 102.76646,74.823158 c 4.14848,-4.388806 27.43053,-11.760732 35.82094,-12.796067 4.66497,-0.575387 55.61329,-9.124153 145.93843,-0.759998 l 145.82529,2.148419 0.44441,195.332948 -1.03714,164.65983 -2.59396,5.34222 -26.93121,34.58516 z"
       id="path4393-4-3-4-4-7-4-3-1-3-0-96"
       inkscape:connector-curvature="0"
       sodipodi:nodetypes="sscscsccccsscccccs" />
    <path
       style="display:inline;fill:#ffffff;fill-opacity:1;stroke:#222222;stroke-width:0;stroke-miterlimit:4;stroke-dasharray:none;stroke-opacity:1"
       d="m 375.65807,467.22898 c -0.25334,-7.07876 -1.82504,-79.16596 -0.94537,-164.25269 l 1.37559,-133.07686 -1.7193,-17.73837 c -0.26464,-2.73012 -3.69976,-12.31908 -4.49072,-14.47923 -1.95553,-5.34143 -10.57959,-3.15363 -11.34848,-11.95437 l -10.09329,-5.03867 -127.14326,0.6168 -157.519983,-5.45844 15.222193,-14.66148 c 4.148473,-4.388805 27.43052,-11.760731 35.82092,-12.796066 4.66499,-0.5755 55.6133,-9.124153 145.93843,-0.760111 l 145.82526,2.148532 0.44441,195.332835 -1.03714,164.65972 -2.59396,5.34233 -26.93121,34.58527 z"
       id="path4393-4-3-4-4-7-4-3-1-3-0-1-4"
       inkscape:connector-curvature="0"
       sodipodi:nodetypes="sscscsccccsscccccs" />
    <path
       style="display:inline;fill:#000080;fill-rule:evenodd;stroke:#272727;stroke-width:14.75471973;stroke-linecap:butt;stroke-linejoin:miter;stroke-miterlimit:4;stroke-dasharray:none;stroke-opacity:1"
       d="M 38.543982,94.914868 C 37.319183,80.069571 46.054976,62.023142 57.308906,53.304772 68.615196,44.545893 83.719953,36.879108 83.719953,36.879108 c 0,0 15.739612,-8.497874 24.037697,-11.461471 8.29794,-2.963598 27.3174,-5.968045 27.3174,-5.968045 l 326.21693,1.2213 c 0,0 6.85687,2.911239 8.21593,5.491735 1.381,2.622134 2.19413,7.476079 2.19413,7.476079 l 0.0362,371.669334 c 0,0 -0.59273,7.11261 -3.55621,8.29803 -2.96364,1.18541 -9.48355,4.14901 -9.48355,4.14901 l -22.52325,0.59276 0.31439,-363.528375 -286.87167,-0.05304 -22.49522,2.828637 -20.35807,5.73604 -15.730509,9.1685 c 0,0 -8.034879,5.022307 -9.272012,9.195695 -0.921634,3.109053 -1.570166,4.449177 2.058111,9.508271 3.276963,4.569355 21.61927,4.113017 21.61927,4.113017 l 74.08953,0 200.33817,0 c 0,0 11.8543,3.556364 12.44703,6.519855 0.59274,2.9636 4.14896,11.26162 4.14896,11.26162 l -1.1854,366.29891 c 0,0 -1.18542,9.48344 -4.14902,10.66886 -2.96349,1.18541 -7.70536,4.14901 -7.70536,4.14901 l -334.884753,0 c 0,0 -4.148981,-1.77818 -7.112578,-4.74178 -2.963632,-2.9636 -4.741723,-9.48344 -4.741723,-9.48344 4.424521,-126.42961 1.859767,-385.075433 1.859767,-385.075433 z"
       id="path4264-4-5-8-6-4-0-5-5-8-6-2-1-3-1"
       inkscape:connector-curvature="0"
       sodipodi:nodetypes="cscsccsccscccccccsscccsccsccsccc" />
    <path
       style="display:inline;fill:#ff0000;fill-rule:evenodd;stroke:none;stroke-width:1px;stroke-linecap:butt;stroke-linejoin:miter;stroke-opacity:1"
       d="m 213.26301,423.67212 3.24831,-55.87087 -86.40503,13.64296 14.29256,-25.33677 -57.170199,-64.96624 25.336789,-5.84686 -6.49661,-33.13276 34.43206,5.84697 9.09527,-25.33688 36.38103,42.22802 -25.98647,-94.85048 24.68715,5.19722 36.66907,-39.05093 34.48699,38.82964 24.68715,-5.19721 -25.98648,94.85059 36.38107,-42.22803 9.09526,25.33677 34.43206,-5.84685 -6.49665,33.13276 25.33684,5.84685 -57.17024,64.96625 14.29254,25.33665 -86.40495,-13.64273 3.24829,55.87076 -6.99289,-0.53905 z"
       id="path3338-1"
       inkscape:connector-curvature="0"
       sodipodi:nodetypes="ccccccccccccccccccccccccccc" />
    <path
       style="display:inline;fill:#ffffff;fill-opacity:0.99607843;fill-rule:evenodd;stroke:#fbfbfb;stroke-width:8.1292448;stroke-linecap:butt;stroke-linejoin:miter;stroke-miterlimit:4;stroke-dasharray:none;stroke-opacity:0.99934645"
       d="M 205.64359,322.73771 148.582,322.50119 c 4.50456,8.4577 17.59204,15.83877 29.1607,15.65754 14.22937,0.59051 27.90089,-15.42102 27.90089,-15.42102 z"
       id="path4624-4-3-5-6-5-1-1-4-6-0"
       inkscape:connector-curvature="0"
       sodipodi:nodetypes="cccc" />
    <path
       style="display:inline;fill:none;fill-rule:evenodd;stroke:#fbfbfb;stroke-width:10.08952999;stroke-linecap:butt;stroke-linejoin:miter;stroke-miterlimit:4;stroke-dasharray:none;stroke-opacity:0.99934645"
       d="m 145.92169,320.20506 31.49156,-54.86905 32.77087,55.37097"
       id="path4641-7-7-98-6-2-8-2-2-7-1"
       inkscape:connector-curvature="0"
       sodipodi:nodetypes="ccc" />
    <path
       style="display:inline;fill:none;fill-rule:evenodd;stroke:#fbfbfb;stroke-width:10.08952999;stroke-linecap:butt;stroke-linejoin:miter;stroke-miterlimit:4;stroke-dasharray:none;stroke-opacity:0.99934645"
       d="m 177.21646,260.73574 42.90726,-0.50193 0,-18.40109"
       id="path4643-6-8-1-2-4-1-8-5-7-4"
       inkscape:connector-curvature="0"
       sodipodi:nodetypes="ccc" />
    <path
       style="display:inline;fill:#ffffff;fill-opacity:0.99607843;fill-rule:evenodd;stroke:#fbfbfb;stroke-width:8.1292448;stroke-linecap:butt;stroke-linejoin:miter;stroke-miterlimit:4;stroke-dasharray:none;stroke-opacity:0.99934645"
       d="m 235.05076,322.76885 57.06145,-0.23652 c -4.50455,8.45748 -17.59198,15.83877 -29.16057,15.65766 -14.22949,0.59039 -27.90088,-15.42114 -27.90088,-15.42114 z"
       id="path4624-8-6-5-4-6-3-9-3-6-1-7"
       inkscape:connector-curvature="0"
       sodipodi:nodetypes="cccc" />
    <path
       style="display:inline;fill:none;fill-rule:evenodd;stroke:#fbfbfb;stroke-width:10.08952999;stroke-linecap:butt;stroke-linejoin:miter;stroke-miterlimit:4;stroke-dasharray:none;stroke-opacity:0.99934645"
       d="m 294.77258,320.2362 -31.49156,-54.86915 -32.77088,55.37097"
       id="path4641-1-9-5-87-8-7-2-9-0-9-2"
       inkscape:connector-curvature="0"
       sodipodi:nodetypes="ccc" />
    <path
       style="display:inline;fill:none;fill-rule:evenodd;stroke:#fbfbfb;stroke-width:10.08952999;stroke-linecap:butt;stroke-linejoin:miter;stroke-miterlimit:4;stroke-dasharray:none;stroke-opacity:0.99934645"
       d="m 263.4779,260.76677 -42.90728,-0.50181 0,-18.4011"
       id="path4643-9-2-6-4-8-0-3-7-53-6-1"
       inkscape:connector-curvature="0"
       sodipodi:nodetypes="ccc" />
    <text
       xml:space="preserve"
       style="font-style:normal;font-variant:normal;font-weight:bold;font-stretch:normal;font-size:114.27205658px;line-height:125%;font-family:'Adobe Gothic Std';-inkscape-font-specification:'Adobe Gothic Std, Bold';text-align:start;letter-spacing:0px;word-spacing:0px;writing-mode:lr-tb;text-anchor:start;display:inline;fill:#000080;fill-opacity:1;stroke:none;stroke-width:1px;stroke-linecap:butt;stroke-linejoin:miter;stroke-opacity:1"
       x="54.319195"
       y="1634.4933"
       id="text4668-2-9"
       sodipodi:linespacing="125%"
       transform="scale(0.82245629,1.2158701)"><tspan
         sodipodi:role="line"
         id="tspan4674-1-0"
         x="54.319195"
         y="1634.4933">DICTIONARY</tspan></text>
    <text
       xml:space="preserve"
       style="font-style:normal;font-variant:normal;font-weight:bold;font-stretch:normal;font-size:114.27101135px;line-height:125%;font-family:'Adobe Gothic Std';-inkscape-font-specification:'Adobe Gothic Std, Bold';text-align:start;letter-spacing:0px;word-spacing:0px;writing-mode:lr-tb;text-anchor:start;display:inline;fill:#000080;fill-opacity:1;stroke:none;stroke-width:1px;stroke-linecap:butt;stroke-linejoin:miter;stroke-opacity:1"
       x="55.885113"
       y="1525.3824"
       id="text4668-2-9-1"
       sodipodi:linespacing="125%"
       transform="scale(0.82245629,1.2158701)"><tspan
         sodipodi:role="line"
         id="tspan4600"
         x="55.885113"
         y="1525.3824">LEGAL</tspan></text>
    <text
       xml:space="preserve"
       style="font-style:normal;font-variant:normal;font-weight:bold;font-stretch:normal;font-size:114.27101135px;line-height:125%;font-family:'Adobe Gothic Std';-inkscape-font-specification:'Adobe Gothic Std, Bold';text-align:start;letter-spacing:0px;word-spacing:0px;writing-mode:lr-tb;text-anchor:start;display:inline;fill:#000080;fill-opacity:1;stroke:none;stroke-width:1px;stroke-linecap:butt;stroke-linejoin:miter;stroke-opacity:1"
       x="57.385418"
       y="1418.8304"
       id="text4668-2-9-10"
       sodipodi:linespacing="125%"
       transform="scale(0.82245629,1.2158701)"><tspan
         sodipodi:role="line"
         id="tspan4598"
         x="57.385418"
         y="1418.8304">CANADIAN</tspan></text>
    <text
       xml:space="preserve"
       style="font-style:normal;font-variant:normal;font-weight:bold;font-stretch:normal;font-size:114.27205658px;line-height:125%;font-family:'Adobe Gothic Std';-inkscape-font-specification:'Adobe Gothic Std, Bold';text-align:start;letter-spacing:0px;word-spacing:0px;writing-mode:lr-tb;text-anchor:start;display:inline;fill:#ffffff;fill-opacity:1;stroke:none;stroke-width:1px;stroke-linecap:butt;stroke-linejoin:miter;stroke-opacity:1"
       x="50.064495"
       y="1635.7588"
       id="text4668-2-9-2"
       sodipodi:linespacing="125%"
       transform="scale(0.82245629,1.2158701)"><tspan
         sodipodi:role="line"
         id="tspan4674-1-0-1"
         x="50.064495"
         y="1635.7588">DICTIONARY</tspan></text>
    <text
       xml:space="preserve"
       style="font-style:normal;font-variant:normal;font-weight:bold;font-stretch:normal;font-size:114.27101135px;line-height:125%;font-family:'Adobe Gothic Std';-inkscape-font-specification:'Adobe Gothic Std, Bold';text-align:start;letter-spacing:0px;word-spacing:0px;writing-mode:lr-tb;text-anchor:start;display:inline;fill:#ffffff;fill-opacity:1;stroke:none;stroke-width:1px;stroke-linecap:butt;stroke-linejoin:miter;stroke-opacity:1"
       x="51.630413"
       y="1526.6479"
       id="text4668-2-9-1-6"
       sodipodi:linespacing="125%"
       transform="scale(0.82245629,1.2158701)"><tspan
         sodipodi:role="line"
         id="tspan4600-3"
         x="51.630413"
         y="1526.6479">LEGAL</tspan></text>
    <text
       xml:space="preserve"
       style="font-style:normal;font-variant:normal;font-weight:bold;font-stretch:normal;font-size:114.27101135px;line-height:125%;font-family:'Adobe Gothic Std';-inkscape-font-specification:'Adobe Gothic Std, Bold';text-align:start;letter-spacing:0px;word-spacing:0px;writing-mode:lr-tb;text-anchor:start;display:inline;fill:#ffffff;fill-opacity:1;stroke:none;stroke-width:1px;stroke-linecap:butt;stroke-linejoin:miter;stroke-opacity:1"
       x="53.130718"
       y="1420.0959"
       id="text4668-2-9-10-8"
       sodipodi:linespacing="125%"
       transform="scale(0.82245629,1.2158701)"><tspan
         sodipodi:role="line"
         id="tspan4598-8"
         x="53.130718"
         y="1420.0959">CANADIAN</tspan></text>
  </g>
</svg>
